<svg width="200" height="200" viewBox="0 0 200 200" fill="none" xmlns="http://www.w3.org/2000/svg">
<path fill-rule="evenodd" clip-rule="evenodd" d="M0 0H60V20L180 20V40V90V110H160H130V115.858L154.142 140H170C186.569 140 200 153.431 200 170C200 186.569 186.569 200 170 200H150C133.431 200 120 186.569 120 170C120 160.222 124.678 151.537 131.918 146.06L115.858 130H70V110H40L40 141.707C51.6519 145.825 60 156.938 60 170C60 186.569 46.5685 200 30 200C13.4315 200 0 186.569 0 170C0 156.938 8.34807 145.825 20 141.707L20 110V100V90L70 90V70H130V90L160 90V40L60 40V60H0V0ZM30 160C24.4772 160 20 164.477 20 170C20 175.523 24.4772 180 30 180C35.5228 180 40 175.523 40 170C40 164.477 35.5228 160 30 160ZM40 40V20H20V40H40ZM180 170C180 164.477 175.523 160 170 160H150C144.477 160 140 164.477 140 170C140 175.523 144.477 180 150 180H170C175.523 180 180 175.523 180 170ZM110 90.0001H90V110H110V90.0001Z" fill="#2E8E9D"/>
</svg>
