<?xml version="1.0" encoding="iso-8859-1"?>
<!-- Uploaded to: SVG Repo, www.svgrepo.com, Generator: SVG Repo Mixer Tools -->
<svg fill="#000000" version="1.1" id="Layer_1" xmlns="http://www.w3.org/2000/svg" xmlns:xlink="http://www.w3.org/1999/xlink" 
	 viewBox="0 0 512 512" xml:space="preserve">
<g>
	<g>
		<path d="M121.949,267.737v195.207h0.001c0,27.05,22.008,49.057,49.057,49.057h138.274c27.051,0,49.058-22.008,49.058-49.057
			V267.737H121.949z M342.439,291.511H161.323v15.901h181.115v155.531c0,18.283-14.875,33.156-33.157,33.156H171.007
			c-18.282,0-33.156-14.873-33.156-33.156V307.412h7.572v-15.901h-7.572v-7.875h204.588V291.511z"/>
	</g>
</g>
<g>
	<g>
		<rect x="106.203" y="243.81" width="268.19" height="15.901"/>
	</g>
</g>
<g>
	<g>
		<rect x="168.746" y="472.779" width="142.046" height="15.901"/>
	</g>
</g>
<g>
	<g>
		<path d="M182.041,7.11l-0.286-0.43C178.966,2.496,174.3,0,169.274,0c-5.027,0-9.693,2.496-12.48,6.679l-0.286,0.43l-26.681,54.109
			v175.096h15.901V73.255l15.596,3.899v159.235h15.901V77.154l15.597-3.899v163.059h15.901V61.218L182.041,7.11z M169.273,17.171
			l9.22,18.699l-9.22,3.074l-9.22-3.074L169.273,17.171z M169.274,62.753l-20.009-5.003l3.691-7.486l16.318,5.439l16.318-5.439
			l3.691,7.486L169.274,62.753z"/>
	</g>
</g>
<g>
	<g>
		<polygon points="223.866,7.42 223.866,236.389 239.767,236.389 239.767,23.321 271.568,23.321 271.568,47.702 264.147,47.702 
			264.147,63.602 271.568,63.602 271.568,71.023 255.667,71.023 255.667,86.923 271.568,86.923 271.568,94.344 264.147,94.344 
			264.147,110.244 271.568,110.244 271.568,117.665 255.667,117.665 255.667,133.565 271.568,133.565 271.568,142.046 
			264.147,142.046 264.147,157.946 271.568,157.946 271.568,165.366 255.667,165.366 255.667,181.267 271.568,181.267 
			271.568,188.687 264.147,188.687 264.147,204.588 271.568,204.588 271.568,213.068 255.667,213.068 255.667,228.969 
			271.568,228.969 271.568,236.389 287.468,236.389 287.468,7.42 		"/>
	</g>
</g>
<g>
	<g>
		<polygon points="303.369,86.923 303.369,236.389 319.27,236.389 319.27,102.824 334.11,102.824 334.11,236.389 350.011,236.389 
			350.011,86.923 		"/>
	</g>
</g>
<g>
	<g>
		<path d="M389.478,133.944v7.875c0,4.185-3.406,7.59-7.591,7.59s-7.591-3.405-7.591-7.59v-79.03h-71.154v16.317h54.838v62.713
			c0,13.183,10.724,23.907,23.908,23.907c13.184,0,23.908-10.724,23.908-23.907v-7.875H389.478z"/>
	</g>
</g>
<g>
	<g>
		<path d="M326.69,23.624c-13.078,0-23.321,10.41-23.321,23.699v7.799h15.901v-7.799c0-4.446,3.191-7.799,7.42-7.799
			s7.42,3.352,7.42,7.799v7.799h15.901v-7.799C350.011,34.035,339.768,23.624,326.69,23.624z"/>
	</g>
</g>
</svg>