<svg height="200px" width="200px" version="1.1" id="Layer_1" xmlns="http://www.w3.org/2000/svg" xmlns:xlink="http://www.w3.org/1999/xlink" viewBox="-40.28 -40.28 584.03 584.03" xml:space="preserve" fill="#000000" stroke="#000000" stroke-width="0.00503467"><g id="SVGRepo_bgCarrier" stroke-width="0"></g><g id="SVGRepo_tracerCarrier" stroke-linecap="round" stroke-linejoin="round"></g><g id="SVGRepo_iconCarrier"> <g transform="translate(1 1)"> <path style="fill:#ECF4F7;" d="M498.2,88.6v375.467c0,18.773-15.36,34.133-34.133,34.133H37.4 c-18.773,0-34.133-15.36-34.133-34.133V88.6H498.2z"></path> <path style="fill:#FFE079;" d="M88.6,498.2h85.333v-85.333H88.6V498.2z M327.533,498.2h85.333v-85.333h-85.333V498.2z M208.067,498.2H293.4v-85.333h-85.333V498.2z"></path> <path style="fill:#AAB1BA;" d="M498.2,37.4v51.2H3.267V37.4c0-18.773,15.36-34.133,34.133-34.133h426.667 C482.84,3.267,498.2,18.627,498.2,37.4L498.2,37.4z"></path> <polygon style="fill:#80D6FA;" points="412.867,327.533 173.933,327.533 242.2,259.267 276.333,293.4 327.533,242.2 "></polygon> <polygon style="fill:#F2EDDA;" points="412.867,191 412.867,327.533 327.533,242.2 276.333,293.4 242.2,259.267 173.933,327.533 88.6,327.533 88.6,191 "></polygon> <path style="fill:#FFE079;" d="M114.2,37.4c4.267,0,8.533,4.267,8.533,8.533s-4.267,8.533-8.533,8.533 c-4.267,0-8.533-4.267-8.533-8.533S109.933,37.4,114.2,37.4"></path> <path style="fill:#FF7474;" d="M63,37.4c4.267,0,8.533,4.267,8.533,8.533S67.267,54.467,63,54.467s-8.533-4.267-8.533-8.533 S58.733,37.4,63,37.4"></path> <path style="fill:#50DD8E;" d="M165.4,37.4c5.12,0,8.533,4.267,8.533,8.533s-3.413,8.533-8.533,8.533 c-4.267,0-8.533-4.267-8.533-8.533S161.133,37.4,165.4,37.4"></path> <path style="fill:#FFE079;" d="M156.867,225.133c9.387,0,17.067,7.68,17.067,17.067s-7.68,17.067-17.067,17.067 S139.8,251.587,139.8,242.2S147.48,225.133,156.867,225.133"></path> </g> <path style="fill:#51565F;" d="M465.067,503.467H38.4c-21.333,0-38.4-17.067-38.4-38.4V123.733c0-2.56,1.707-4.267,4.267-4.267 s4.267,1.707,4.267,4.267v341.333c0,16.213,13.653,29.867,29.867,29.867h426.667c16.213,0,29.867-13.653,29.867-29.867V38.4 c0-16.213-13.653-29.867-29.867-29.867H38.4C22.187,8.533,8.533,22.187,8.533,38.4v46.933h456.533c2.56,0,4.267,1.707,4.267,4.267 c0,2.56-1.707,4.267-4.267,4.267H4.267C1.707,93.867,0,92.16,0,89.6V38.4C0,17.067,17.067,0,38.4,0h426.667 c21.333,0,38.4,17.067,38.4,38.4v426.667C503.467,486.4,486.4,503.467,465.067,503.467z M413.867,469.333 c-2.56,0-4.267-1.707-4.267-4.267v-46.933h-76.8v46.933c0,2.56-1.707,4.267-4.267,4.267s-4.267-1.707-4.267-4.267v-51.2 c0-2.56,1.707-4.267,4.267-4.267h85.333c2.56,0,4.267,1.707,4.267,4.267v51.2C418.133,467.627,416.427,469.333,413.867,469.333z M294.4,469.333c-2.56,0-4.267-1.707-4.267-4.267v-46.933h-76.8v46.933c0,2.56-1.707,4.267-4.267,4.267s-4.267-1.707-4.267-4.267 v-51.2c0-2.56,1.707-4.267,4.267-4.267H294.4c2.56,0,4.267,1.707,4.267,4.267v51.2C298.667,467.627,296.96,469.333,294.4,469.333z M174.933,469.333c-2.56,0-4.267-1.707-4.267-4.267v-46.933h-76.8v46.933c0,2.56-1.707,4.267-4.267,4.267 c-2.56,0-4.267-1.707-4.267-4.267v-51.2c0-2.56,1.707-4.267,4.267-4.267h85.333c2.56,0,4.267,1.707,4.267,4.267v51.2 C179.2,467.627,177.493,469.333,174.933,469.333z M413.867,332.8H226.133c-2.56,0-4.267-1.707-4.267-4.267 c0-2.56,1.707-4.267,4.267-4.267H409.6v-128H93.867v128h79.36l67.413-67.413c1.707-1.707,4.267-1.707,5.973,0l30.72,30.72 l47.787-47.787c1.707-1.707,4.267-1.707,5.973,0l51.2,51.2c1.707,1.707,1.707,4.267,0,5.973c-1.707,1.707-4.267,1.707-5.973,0 l-47.787-47.787l-47.787,47.787c-1.707,1.707-4.267,1.707-5.973,0l-30.72-30.72L179.2,331.094c-0.853,0.853-1.707,0.853-3.413,0.853 H90.453c-2.56,0-4.267-1.707-4.267-4.267V191.147c0-2.56,1.707-4.267,4.267-4.267H414.72c2.56,0,4.267,1.707,4.267,4.267V327.68 C418.133,331.093,416.427,332.8,413.867,332.8z M157.867,264.533c-11.947,0-21.333-9.387-21.333-21.333s9.387-21.333,21.333-21.333 c11.947,0,21.333,9.387,21.333,21.333S169.813,264.533,157.867,264.533z M157.867,230.4c-6.827,0-12.8,5.973-12.8,12.8 s5.973,12.8,12.8,12.8c6.827,0,12.8-5.973,12.8-12.8S164.693,230.4,157.867,230.4z M448,145.067h-34.133 c-2.56,0-4.267-1.707-4.267-4.267c0-2.56,1.707-4.267,4.267-4.267H448c2.56,0,4.267,1.707,4.267,4.267 C452.267,143.36,450.56,145.067,448,145.067z M379.733,145.067H345.6c-2.56,0-4.267-1.707-4.267-4.267 c0-2.56,1.707-4.267,4.267-4.267h34.133c2.56,0,4.267,1.707,4.267,4.267C384,143.36,382.293,145.067,379.733,145.067z M311.467,145.067h-34.133c-2.56,0-4.267-1.707-4.267-4.267c0-2.56,1.707-4.267,4.267-4.267h34.133c2.56,0,4.267,1.707,4.267,4.267 C315.733,143.36,314.027,145.067,311.467,145.067z M123.733,145.067H55.467c-2.56,0-4.267-1.707-4.267-4.267 c0-2.56,1.707-4.267,4.267-4.267h68.267c2.56,0,4.267,1.707,4.267,4.267C128,143.36,126.293,145.067,123.733,145.067z M166.4,59.733 c-6.827,0-12.8-5.973-12.8-12.8s5.973-12.8,12.8-12.8s12.8,5.973,12.8,12.8S173.227,59.733,166.4,59.733z M166.4,42.667 c-2.56,0-4.267,1.707-4.267,4.267c0,2.56,1.707,4.267,4.267,4.267s4.267-1.707,4.267-4.267 C170.667,44.373,168.96,42.667,166.4,42.667z M115.2,59.733c-6.827,0-12.8-5.973-12.8-12.8s5.973-12.8,12.8-12.8 s12.8,5.973,12.8,12.8S122.027,59.733,115.2,59.733z M115.2,42.667c-2.56,0-4.267,1.707-4.267,4.267c0,2.56,1.707,4.267,4.267,4.267 c2.56,0,4.267-1.707,4.267-4.267C119.467,44.373,117.76,42.667,115.2,42.667z M64,59.733c-6.827,0-12.8-5.973-12.8-12.8 s5.973-12.8,12.8-12.8c6.827,0,12.8,5.973,12.8,12.8S70.827,59.733,64,59.733z M64,42.667c-2.56,0-4.267,1.707-4.267,4.267 c0,2.56,1.707,4.267,4.267,4.267c2.56,0,4.267-1.707,4.267-4.267C68.267,44.373,66.56,42.667,64,42.667z"></path> </g></svg>